<?xml version="1.0" encoding="UTF-8" standalone="no"?>
<!DOCTYPE svg PUBLIC "-//W3C//DTD SVG 1.1//EN"
 "http://www.w3.org/Graphics/SVG/1.1/DTD/svg11.dtd">
<!-- Generated by graphviz version 2.40.1 (20161225.0304)
 -->
<!-- Title: Mountaineering Pages: 1 -->
<svg width="1963pt" height="906pt"
 viewBox="0.00 0.00 1963.35 906.00" xmlns="http://www.w3.org/2000/svg" xmlns:xlink="http://www.w3.org/1999/xlink">
<g id="graph0" class="graph" transform="scale(1 1) rotate(0) translate(4 902)">
<title>Mountaineering</title>
<polygon fill="#ffffff" stroke="transparent" points="-4,4 -4,-902 1959.3467,-902 1959.3467,4 -4,4"/>
<!-- acs -->
<g id="node1" class="node">
<title>acs</title>
<polygon fill="none" stroke="#000000" points="865,-360 786,-307 865,-254 944,-307 865,-360"/>
<text text-anchor="middle" x="865" y="-318.3" font-family="San Francisco" font-size="14.00" fill="#000000">Alpine</text>
<text text-anchor="middle" x="865" y="-303.3" font-family="San Francisco" font-size="14.00" fill="#000000">Climbing</text>
<text text-anchor="middle" x="865" y="-288.3" font-family="San Francisco" font-size="14.00" fill="#000000">School</text>
</g>
<!-- class_d -->
<g id="node5" class="node">
<title>class_d</title>
<polygon fill="none" stroke="#000000" points="501,-203 431,-165 501,-127 571,-165 501,-203"/>
<text text-anchor="middle" x="501" y="-168.8" font-family="San Francisco" font-size="14.00" fill="#000000">Class D</text>
<text text-anchor="middle" x="501" y="-153.8" font-family="San Francisco" font-size="14.00" fill="#000000">Rating</text>
</g>
<!-- acs&#45;&gt;class_d -->
<g id="edge8" class="edge">
<title>acs&#45;&gt;class_d</title>
<path fill="none" stroke="#000000" d="M826.101,-279.9057C811.2761,-270.5803 793.8776,-260.7877 777,-254 709.7773,-226.9651 686.6855,-241.0669 618,-218 593.6012,-209.806 567.4202,-198.2272 546.0237,-187.9813"/>
<polygon fill="#000000" stroke="#000000" points="547.3852,-184.7517 536.8604,-183.5356 544.3296,-191.0496 547.3852,-184.7517"/>
</g>
<!-- hams -->
<g id="node6" class="node">
<title>hams</title>
<polygon fill="none" stroke="#000000" points="867,-218 739,-165 867,-112 995,-165 867,-218"/>
<text text-anchor="middle" x="867" y="-176.3" font-family="San Francisco" font-size="14.00" fill="#000000">High Altitude</text>
<text text-anchor="middle" x="867" y="-161.3" font-family="San Francisco" font-size="14.00" fill="#000000">Mountaineering</text>
<text text-anchor="middle" x="867" y="-146.3" font-family="San Francisco" font-size="14.00" fill="#000000">School</text>
</g>
<!-- acs&#45;&gt;hams -->
<g id="edge53" class="edge">
<title>acs&#45;&gt;hams</title>
<path fill="none" stroke="#000000" d="M865.7447,-254.1244C865.8645,-245.6231 865.9894,-236.7503 866.1121,-228.0393"/>
<polygon fill="#000000" stroke="#000000" points="869.6134,-227.9681 866.2547,-217.9197 862.6141,-227.8694 869.6134,-227.9681"/>
</g>
<!-- intermediate_acs -->
<g id="node8" class="node">
<title>intermediate_acs</title>
<polygon fill="none" stroke="#000000" points="1315,-218 1187,-165 1315,-112 1443,-165 1315,-218"/>
<text text-anchor="middle" x="1315" y="-176.3" font-family="San Francisco" font-size="14.00" fill="#000000">Intermediate</text>
<text text-anchor="middle" x="1315" y="-161.3" font-family="San Francisco" font-size="14.00" fill="#000000">Alpine Climbing</text>
<text text-anchor="middle" x="1315" y="-146.3" font-family="San Francisco" font-size="14.00" fill="#000000">School</text>
</g>
<!-- acs&#45;&gt;intermediate_acs -->
<g id="edge36" class="edge">
<title>acs&#45;&gt;intermediate_acs</title>
<path fill="none" stroke="#000000" d="M903.238,-279.5917C918.131,-270.1165 935.7463,-260.3054 953,-254 1048.1191,-219.2387 1080.2339,-244.4157 1178,-218 1199.5634,-212.1737 1222.4082,-204.1303 1243.1335,-196.0688"/>
<polygon fill="#000000" stroke="#000000" points="1244.4795,-199.3003 1252.4945,-192.3714 1241.908,-192.7897 1244.4795,-199.3003"/>
</g>
<!-- alpine_scrambling -->
<g id="node2" class="node">
<title>alpine_scrambling</title>
<polygon fill="none" stroke="#000000" points="669,-502 572,-449 669,-396 766,-449 669,-502"/>
<text text-anchor="middle" x="669" y="-460.3" font-family="San Francisco" font-size="14.00" fill="#000000">Alpine</text>
<text text-anchor="middle" x="669" y="-445.3" font-family="San Francisco" font-size="14.00" fill="#000000">Scrambling</text>
<text text-anchor="middle" x="669" y="-430.3" font-family="San Francisco" font-size="14.00" fill="#000000">School</text>
</g>
<!-- backpacking -->
<g id="node3" class="node">
<title>backpacking</title>
<polygon fill="none" stroke="#000000" points="107,-741 0,-703 107,-665 214,-703 107,-741"/>
<text text-anchor="middle" x="107" y="-706.8" font-family="San Francisco" font-size="14.00" fill="#000000">Backpacking</text>
<text text-anchor="middle" x="107" y="-691.8" font-family="San Francisco" font-size="14.00" fill="#000000">School</text>
</g>
<!-- class_c -->
<g id="node4" class="node">
<title>class_c</title>
<polygon fill="none" stroke="#000000" points="691,-614 623,-576 691,-538 759,-576 691,-614"/>
<text text-anchor="middle" x="691" y="-579.8" font-family="San Francisco" font-size="14.00" fill="#000000">Class C</text>
<text text-anchor="middle" x="691" y="-564.8" font-family="San Francisco" font-size="14.00" fill="#000000">Rating</text>
</g>
<!-- class_c&#45;&gt;alpine_scrambling -->
<g id="edge10" class="edge">
<title>class_c&#45;&gt;alpine_scrambling</title>
<path fill="none" stroke="#000000" d="M684.9884,-541.2967C683.1779,-530.845 681.1386,-519.0727 679.1376,-507.5216"/>
<polygon fill="#000000" stroke="#000000" points="682.5513,-506.722 677.3957,-497.4662 675.654,-507.9169 682.5513,-506.722"/>
</g>
<!-- acs_couloir_climb -->
<g id="node36" class="node">
<title>acs_couloir_climb</title>
<polygon fill="none" stroke="#000000" points="553.5,-468 486.5,-468 486.5,-430 553.5,-430 553.5,-468"/>
<text text-anchor="middle" x="520" y="-452.8" font-family="San Francisco" font-size="14.00" fill="#000000">Couloir</text>
<text text-anchor="middle" x="520" y="-437.8" font-family="San Francisco" font-size="14.00" fill="#000000">climb</text>
</g>
<!-- class_c&#45;&gt;acs_couloir_climb -->
<g id="edge31" class="edge">
<title>class_c&#45;&gt;acs_couloir_climb</title>
<path fill="none" stroke="#000000" d="M653.3801,-558.8444C626.5598,-545.5624 590.5253,-525.5005 563,-502 554.259,-494.5371 545.9686,-485.1205 539.0422,-476.3022"/>
<polygon fill="#000000" stroke="#000000" points="541.673,-473.9784 532.8492,-468.1141 536.09,-478.2011 541.673,-473.9784"/>
</g>
<!-- acs_grad_climb -->
<g id="node37" class="node">
<title>acs_grad_climb</title>
<polygon fill="none" stroke="#000000" points="867.5,-468 784.5,-468 784.5,-430 867.5,-430 867.5,-468"/>
<text text-anchor="middle" x="826" y="-452.8" font-family="San Francisco" font-size="14.00" fill="#000000">ACS grad</text>
<text text-anchor="middle" x="826" y="-437.8" font-family="San Francisco" font-size="14.00" fill="#000000">climb</text>
</g>
<!-- class_c&#45;&gt;acs_grad_climb -->
<g id="edge33" class="edge">
<title>class_c&#45;&gt;acs_grad_climb</title>
<path fill="none" stroke="#000000" d="M718.367,-552.891C735.0408,-538.5676 756.6055,-519.6028 775,-502 783.8481,-493.5327 793.2245,-483.9711 801.4915,-475.3235"/>
<polygon fill="#000000" stroke="#000000" points="804.0865,-477.6736 808.4297,-468.0099 799.0081,-472.8559 804.0865,-477.6736"/>
</g>
<!-- hams_alpinist -->
<g id="node7" class="node">
<title>hams_alpinist</title>
<polygon fill="none" stroke="#000000" points="599,-76 531,-38 599,0 667,-38 599,-76"/>
<text text-anchor="middle" x="599" y="-41.8" font-family="San Francisco" font-size="14.00" fill="#000000">HAMS</text>
<text text-anchor="middle" x="599" y="-26.8" font-family="San Francisco" font-size="14.00" fill="#000000">Alpinist</text>
</g>
<!-- class_d&#45;&gt;hams_alpinist -->
<g id="edge59" class="edge">
<title>class_d&#45;&gt;hams_alpinist</title>
<path fill="none" stroke="#000000" d="M521.7833,-138.0666C536.4003,-119.1241 556.0991,-93.5961 571.9415,-73.0656"/>
<polygon fill="#000000" stroke="#000000" points="574.9084,-74.9498 578.2467,-64.8946 569.3665,-70.6734 574.9084,-74.9498"/>
</g>
<!-- hams&#45;&gt;hams_alpinist -->
<g id="edge57" class="edge">
<title>hams&#45;&gt;hams_alpinist</title>
<path fill="none" stroke="#000000" d="M807.1891,-136.6568C758.2208,-113.4516 689.951,-81.0999 645.1334,-59.8617"/>
<polygon fill="#000000" stroke="#000000" points="646.4767,-56.6252 635.9412,-55.5057 643.4791,-62.9509 646.4767,-56.6252"/>
</g>
<!-- acrs -->
<g id="node13" class="node">
<title>acrs</title>
<ellipse fill="none" stroke="#000000" cx="867" cy="-38" rx="97.6615" ry="37.4533"/>
<text text-anchor="middle" x="867" y="-49.3" font-family="San Francisco" font-size="14.00" fill="#000000">Advanced</text>
<text text-anchor="middle" x="867" y="-34.3" font-family="San Francisco" font-size="14.00" fill="#000000">Crevasse Rescue</text>
<text text-anchor="middle" x="867" y="-19.3" font-family="San Francisco" font-size="14.00" fill="#000000">Seminar</text>
</g>
<!-- hams&#45;&gt;acrs -->
<g id="edge60" class="edge">
<title>hams&#45;&gt;acrs</title>
<path fill="none" stroke="#000000" d="M867,-111.8764C867,-103.2749 867,-94.4122 867,-85.943"/>
<polygon fill="#000000" stroke="#000000" points="870.5001,-85.8516 867,-75.8516 863.5001,-85.8516 870.5001,-85.8516"/>
</g>
<!-- ski_mountaineering -->
<g id="node9" class="node">
<title>ski_mountaineering</title>
<polygon fill="none" stroke="#000000" points="176,-218 48,-165 176,-112 304,-165 176,-218"/>
<text text-anchor="middle" x="176" y="-176.3" font-family="San Francisco" font-size="14.00" fill="#000000">Ski</text>
<text text-anchor="middle" x="176" y="-161.3" font-family="San Francisco" font-size="14.00" fill="#000000">Mountaineering</text>
<text text-anchor="middle" x="176" y="-146.3" font-family="San Francisco" font-size="14.00" fill="#000000">School</text>
</g>
<!-- wilderness_first_aid -->
<g id="node10" class="node">
<title>wilderness_first_aid</title>
<polygon fill="none" stroke="#000000" points="263,-360 168,-307 263,-254 358,-307 263,-360"/>
<text text-anchor="middle" x="263" y="-318.3" font-family="San Francisco" font-size="14.00" fill="#000000">Wilderness</text>
<text text-anchor="middle" x="263" y="-303.3" font-family="San Francisco" font-size="14.00" fill="#000000">First Aid</text>
<text text-anchor="middle" x="263" y="-288.3" font-family="San Francisco" font-size="14.00" fill="#000000">+ CPR/AED</text>
</g>
<!-- wilderness_first_aid&#45;&gt;class_d -->
<g id="edge9" class="edge">
<title>wilderness_first_aid&#45;&gt;class_d</title>
<path fill="none" stroke="#000000" d="M309.171,-279.4526C352.5846,-253.5504 417.0108,-215.1112 459.0078,-190.0542"/>
<polygon fill="#000000" stroke="#000000" points="460.819,-193.0492 467.6134,-184.9198 457.2324,-187.0378 460.819,-193.0492"/>
</g>
<!-- wilderness_first_aid&#45;&gt;ski_mountaineering -->
<g id="edge49" class="edge">
<title>wilderness_first_aid&#45;&gt;ski_mountaineering</title>
<path fill="none" stroke="#000000" d="M238.7656,-267.4451C229.0038,-251.5119 217.6197,-232.9311 207.2476,-216.0018"/>
<polygon fill="#000000" stroke="#000000" points="210.1385,-214.0207 201.9298,-207.3223 204.1697,-217.6776 210.1385,-214.0207"/>
</g>
<!-- wilderness_trekking_school -->
<g id="node11" class="node">
<title>wilderness_trekking_school</title>
<polygon fill="none" stroke="#000000" points="540,-898 445,-845 540,-792 635,-845 540,-898"/>
<text text-anchor="middle" x="540" y="-856.3" font-family="San Francisco" font-size="14.00" fill="#000000">Wilderness</text>
<text text-anchor="middle" x="540" y="-841.3" font-family="San Francisco" font-size="14.00" fill="#000000">Trekking</text>
<text text-anchor="middle" x="540" y="-826.3" font-family="San Francisco" font-size="14.00" fill="#000000">School</text>
</g>
<!-- wilderness_trekking_school&#45;&gt;backpacking -->
<g id="edge1" class="edge">
<title>wilderness_trekking_school&#45;&gt;backpacking</title>
<path fill="none" stroke="#000000" d="M472.8697,-829.3654C408.043,-813.5186 307.5375,-786.9681 223,-756 202.2747,-748.4078 180.1006,-738.6918 160.7489,-729.6573"/>
<polygon fill="#000000" stroke="#000000" points="162.0316,-726.3925 151.4944,-725.2891 159.0437,-732.7227 162.0316,-726.3925"/>
</g>
<!-- wilderness_trekking_school&#45;&gt;class_c -->
<g id="edge5" class="edge">
<title>wilderness_trekking_school&#45;&gt;class_c</title>
<path fill="none" stroke="#000000" d="M557.3554,-801.6451C563.0697,-787.1662 569.3933,-770.9205 575,-756 592.6045,-709.1516 585.6584,-691.9181 613,-650 624.0135,-633.1148 639.6167,-617.3061 653.9769,-604.6708"/>
<polygon fill="#000000" stroke="#000000" points="656.4635,-607.1497 661.7898,-597.991 651.9146,-601.8291 656.4635,-607.1497"/>
</g>
<!-- winter_camping_school -->
<g id="node12" class="node">
<title>winter_camping_school</title>
<polygon fill="none" stroke="#000000" points="486,-756 406,-703 486,-650 566,-703 486,-756"/>
<text text-anchor="middle" x="486" y="-714.3" font-family="San Francisco" font-size="14.00" fill="#000000">Winter</text>
<text text-anchor="middle" x="486" y="-699.3" font-family="San Francisco" font-size="14.00" fill="#000000">Camping</text>
<text text-anchor="middle" x="486" y="-684.3" font-family="San Francisco" font-size="14.00" fill="#000000">School</text>
</g>
<!-- wilderness_trekking_school&#45;&gt;winter_camping_school -->
<g id="edge2" class="edge">
<title>wilderness_trekking_school&#45;&gt;winter_camping_school</title>
<path fill="none" stroke="#000000" stroke-dasharray="1,5" d="M523.3576,-801.2366C517.8159,-786.6639 511.5879,-770.2868 505.8292,-755.1436"/>
<polygon fill="#000000" stroke="#000000" points="508.9506,-753.5047 502.1246,-745.4018 502.4077,-755.9929 508.9506,-753.5047"/>
</g>
<!-- basic_rock -->
<g id="node21" class="node">
<title>basic_rock</title>
<ellipse fill="none" stroke="#000000" cx="678" cy="-703" rx="55.7232" ry="26.7407"/>
<text text-anchor="middle" x="678" y="-706.8" font-family="San Francisco" font-size="14.00" fill="#000000">Basic</text>
<text text-anchor="middle" x="678" y="-691.8" font-family="San Francisco" font-size="14.00" fill="#000000">Climbing</text>
</g>
<!-- wilderness_trekking_school&#45;&gt;basic_rock -->
<g id="edge11" class="edge">
<title>wilderness_trekking_school&#45;&gt;basic_rock</title>
<path fill="none" stroke="#000000" d="M573.406,-810.6258C595.7661,-787.6175 624.9936,-757.5429 646.8666,-735.0358"/>
<polygon fill="#000000" stroke="#000000" points="649.5226,-737.3249 653.9819,-727.7142 644.5026,-732.4463 649.5226,-737.3249"/>
</g>
<!-- intermediate_snow -->
<g id="node28" class="node">
<title>intermediate_snow</title>
<ellipse fill="none" stroke="#000000" cx="310" cy="-703" rx="77.5641" ry="26.7407"/>
<text text-anchor="middle" x="310" y="-706.8" font-family="San Francisco" font-size="14.00" fill="#000000">Intermediate</text>
<text text-anchor="middle" x="310" y="-691.8" font-family="San Francisco" font-size="14.00" fill="#000000">Snow</text>
</g>
<!-- wilderness_trekking_school&#45;&gt;intermediate_snow -->
<g id="edge27" class="edge">
<title>wilderness_trekking_school&#45;&gt;intermediate_snow</title>
<path fill="none" stroke="#000000" d="M494.8338,-817.1148C454.9786,-792.5085 397.1135,-756.7831 356.7811,-731.8823"/>
<polygon fill="#000000" stroke="#000000" points="358.5478,-728.8597 348.2001,-726.5844 354.8704,-734.816 358.5478,-728.8597"/>
</g>
<!-- navigation_1 -->
<g id="node29" class="node">
<title>navigation_1</title>
<ellipse fill="none" stroke="#000000" cx="1003" cy="-703" rx="69.5877" ry="18"/>
<text text-anchor="middle" x="1003" y="-699.3" font-family="San Francisco" font-size="14.00" fill="#000000">Navigation 1</text>
</g>
<!-- wilderness_trekking_school&#45;&gt;navigation_1 -->
<g id="edge24" class="edge">
<title>wilderness_trekking_school&#45;&gt;navigation_1</title>
<path fill="none" stroke="#000000" d="M618.2653,-835.5463C697.9998,-823.9541 823.9488,-800.1607 925,-756 942.2687,-748.4533 959.778,-736.9777 973.82,-726.6322"/>
<polygon fill="#000000" stroke="#000000" points="976.2186,-729.2064 982.082,-720.3819 971.9954,-723.6239 976.2186,-729.2064"/>
</g>
<!-- advanced_anchors -->
<g id="node14" class="node">
<title>advanced_anchors</title>
<ellipse fill="none" stroke="#000000" cx="1081" cy="-449" rx="61.5366" ry="26.7407"/>
<text text-anchor="middle" x="1081" y="-452.8" font-family="San Francisco" font-size="14.00" fill="#000000">Advanced</text>
<text text-anchor="middle" x="1081" y="-437.8" font-family="San Francisco" font-size="14.00" fill="#000000">Anchors</text>
</g>
<!-- advanced_snow -->
<g id="node15" class="node">
<title>advanced_snow</title>
<ellipse fill="none" stroke="#000000" cx="464" cy="-576" rx="61.5366" ry="26.7407"/>
<text text-anchor="middle" x="464" y="-579.8" font-family="San Francisco" font-size="14.00" fill="#000000">Advanced</text>
<text text-anchor="middle" x="464" y="-564.8" font-family="San Francisco" font-size="14.00" fill="#000000">Snow</text>
</g>
<!-- advanced_snow&#45;&gt;ski_mountaineering -->
<g id="edge47" class="edge">
<title>advanced_snow&#45;&gt;ski_mountaineering</title>
<path fill="none" stroke="#000000" d="M405.4204,-567.4838C305.575,-549.462 104.9123,-497.1995 19,-360 -6.0029,-320.0711 -4.7163,-294.7062 19,-254 35.4386,-225.7852 64.5137,-205.7927 93.2118,-192.004"/>
<polygon fill="#000000" stroke="#000000" points="94.8702,-195.0939 102.4997,-187.7426 91.9511,-188.7316 94.8702,-195.0939"/>
</g>
<!-- advanced_snow&#45;&gt;acs_couloir_climb -->
<g id="edge30" class="edge">
<title>advanced_snow&#45;&gt;acs_couloir_climb</title>
<path fill="none" stroke="#000000" d="M475.7394,-549.3766C485.0289,-528.3095 497.9725,-498.9553 507.4631,-477.4319"/>
<polygon fill="#000000" stroke="#000000" points="510.7229,-478.7139 511.5551,-468.1518 504.318,-475.8896 510.7229,-478.7139"/>
</g>
<!-- aiare_1 -->
<g id="node16" class="node">
<title>aiare_1</title>
<ellipse fill="none" stroke="#000000" cx="606" cy="-307" rx="47.3916" ry="18"/>
<text text-anchor="middle" x="606" y="-303.3" font-family="San Francisco" font-size="14.00" fill="#000000">AIARE 1</text>
</g>
<!-- aiare_1&#45;&gt;hams -->
<g id="edge55" class="edge">
<title>aiare_1&#45;&gt;hams</title>
<path fill="none" stroke="#000000" stroke-dasharray="1,5" d="M621.7002,-289.622C632.504,-278.4029 647.6303,-264.0745 663,-254 685.3819,-239.3292 743.267,-214.4785 791.6828,-194.7591"/>
<polygon fill="#000000" stroke="#000000" points="793.2751,-197.8903 801.2263,-190.8882 790.644,-191.4035 793.2751,-197.8903"/>
</g>
<!-- aiare_1&#45;&gt;hams_alpinist -->
<g id="edge58" class="edge">
<title>aiare_1&#45;&gt;hams_alpinist</title>
<path fill="none" stroke="#000000" d="M605.5298,-288.9325C604.4606,-247.8417 601.8174,-146.2687 600.2412,-85.6977"/>
<polygon fill="#000000" stroke="#000000" points="603.7379,-85.5223 599.9789,-75.6168 596.7403,-85.7045 603.7379,-85.5223"/>
</g>
<!-- aiare_1&#45;&gt;ski_mountaineering -->
<g id="edge50" class="edge">
<title>aiare_1&#45;&gt;ski_mountaineering</title>
<path fill="none" stroke="#000000" d="M592.0798,-289.7068C581.687,-277.9298 566.4844,-262.9147 550,-254 525.4979,-240.7492 373.9081,-206.9331 271.4012,-185.0084"/>
<polygon fill="#000000" stroke="#000000" points="271.841,-181.5235 261.3306,-182.8589 270.3797,-188.3693 271.841,-181.5235"/>
</g>
<!-- aiare_2 -->
<g id="node17" class="node">
<title>aiare_2</title>
<ellipse fill="none" stroke="#000000" cx="674" cy="-165" rx="47.3916" ry="18"/>
<text text-anchor="middle" x="674" y="-161.3" font-family="San Francisco" font-size="14.00" fill="#000000">AIARE 2</text>
</g>
<!-- aiare_1&#45;&gt;aiare_2 -->
<g id="edge51" class="edge">
<title>aiare_1&#45;&gt;aiare_2</title>
<path fill="none" stroke="#000000" d="M614.6122,-289.0156C626.3128,-264.5821 647.333,-220.6871 660.9696,-192.2106"/>
<polygon fill="#000000" stroke="#000000" points="664.2953,-193.3693 665.4577,-182.8384 657.9819,-190.3459 664.2953,-193.3693"/>
</g>
<!-- aiare_rescue -->
<g id="node18" class="node">
<title>aiare_rescue</title>
<ellipse fill="none" stroke="#000000" cx="720" cy="-307" rx="48.1667" ry="26.7407"/>
<text text-anchor="middle" x="720" y="-310.8" font-family="San Francisco" font-size="14.00" fill="#000000">AIARE</text>
<text text-anchor="middle" x="720" y="-295.8" font-family="San Francisco" font-size="14.00" fill="#000000">Rescue</text>
</g>
<!-- aiare_rescue&#45;&gt;aiare_2 -->
<g id="edge52" class="edge">
<title>aiare_rescue&#45;&gt;aiare_2</title>
<path fill="none" stroke="#000000" d="M711.3478,-280.2909C703.2504,-255.2946 691.2026,-218.1036 682.9958,-192.7695"/>
<polygon fill="#000000" stroke="#000000" points="686.2542,-191.4708 679.8427,-183.0362 679.5949,-193.6281 686.2542,-191.4708"/>
</g>
<!-- basic_anchors -->
<g id="node19" class="node">
<title>basic_anchors</title>
<ellipse fill="none" stroke="#000000" cx="1295" cy="-307" rx="52.1524" ry="26.7407"/>
<text text-anchor="middle" x="1295" y="-310.8" font-family="San Francisco" font-size="14.00" fill="#000000">Basic</text>
<text text-anchor="middle" x="1295" y="-295.8" font-family="San Francisco" font-size="14.00" fill="#000000">Anchors</text>
</g>
<!-- basic_anchors&#45;&gt;hams -->
<g id="edge54" class="edge">
<title>basic_anchors&#45;&gt;hams</title>
<path fill="none" stroke="#000000" d="M1259.448,-287.2362C1238.118,-276.0929 1210.1369,-262.703 1184,-254 1106.5941,-228.2255 1082.3331,-240.8019 1004,-218 982.6597,-211.7881 959.9714,-203.6631 939.3263,-195.6475"/>
<polygon fill="#000000" stroke="#000000" points="940.5839,-192.3812 929.9966,-191.9797 938.0227,-198.8959 940.5839,-192.3812"/>
</g>
<!-- basic_anchors&#45;&gt;intermediate_acs -->
<g id="edge37" class="edge">
<title>basic_anchors&#45;&gt;intermediate_acs</title>
<path fill="none" stroke="#000000" d="M1298.8089,-279.9566C1300.9897,-264.473 1303.8181,-244.3911 1306.4994,-225.3541"/>
<polygon fill="#000000" stroke="#000000" points="1309.9972,-225.6143 1307.9262,-215.2239 1303.0656,-224.638 1309.9972,-225.6143"/>
</g>
<!-- ice_lead_climbing -->
<g id="node25" class="node">
<title>ice_lead_climbing</title>
<ellipse fill="none" stroke="#000000" cx="1714" cy="-165" rx="55.7232" ry="26.7407"/>
<text text-anchor="middle" x="1714" y="-168.8" font-family="San Francisco" font-size="14.00" fill="#000000">Ice Lead</text>
<text text-anchor="middle" x="1714" y="-153.8" font-family="San Francisco" font-size="14.00" fill="#000000">Climbing</text>
</g>
<!-- basic_anchors&#45;&gt;ice_lead_climbing -->
<g id="edge46" class="edge">
<title>basic_anchors&#45;&gt;ice_lead_climbing</title>
<path fill="none" stroke="#000000" d="M1334.7829,-289.3039C1361.7675,-277.8774 1398.4923,-263.4358 1432,-254 1518.0943,-229.7559 1546.6542,-250.4573 1630,-218 1645.6852,-211.8917 1661.6222,-202.7355 1675.3383,-193.7439"/>
<polygon fill="#000000" stroke="#000000" points="1677.676,-196.3887 1684.006,-187.8926 1673.7594,-190.5869 1677.676,-196.3887"/>
</g>
<!-- intermediate_ice_climbing -->
<g id="node26" class="node">
<title>intermediate_ice_climbing</title>
<ellipse fill="none" stroke="#000000" cx="1091" cy="-165" rx="77.5641" ry="26.7407"/>
<text text-anchor="middle" x="1091" y="-168.8" font-family="San Francisco" font-size="14.00" fill="#000000">Intermediate</text>
<text text-anchor="middle" x="1091" y="-153.8" font-family="San Francisco" font-size="14.00" fill="#000000">Ice Climbing</text>
</g>
<!-- basic_anchors&#45;&gt;intermediate_ice_climbing -->
<g id="edge43" class="edge">
<title>basic_anchors&#45;&gt;intermediate_ice_climbing</title>
<path fill="none" stroke="#000000" d="M1263.5721,-285.1237C1228.9712,-261.0388 1173.1192,-222.1614 1134.3659,-195.1861"/>
<polygon fill="#000000" stroke="#000000" points="1136.0902,-192.1219 1125.8832,-189.2814 1132.0911,-197.8671 1136.0902,-192.1219"/>
</g>
<!-- basic_ice_climbing -->
<g id="node20" class="node">
<title>basic_ice_climbing</title>
<ellipse fill="none" stroke="#000000" cx="1019" cy="-307" rx="56.6372" ry="26.7407"/>
<text text-anchor="middle" x="1019" y="-310.8" font-family="San Francisco" font-size="14.00" fill="#000000">Basic Ice</text>
<text text-anchor="middle" x="1019" y="-295.8" font-family="San Francisco" font-size="14.00" fill="#000000">Climbing</text>
</g>
<!-- basic_ice_climbing&#45;&gt;intermediate_ice_climbing -->
<g id="edge42" class="edge">
<title>basic_ice_climbing&#45;&gt;intermediate_ice_climbing</title>
<path fill="none" stroke="#000000" d="M1032.3739,-280.6237C1043.7691,-258.1498 1060.2507,-225.6445 1072.8384,-200.8187"/>
<polygon fill="#000000" stroke="#000000" points="1076.0527,-202.2188 1077.4534,-191.7169 1069.8094,-199.0531 1076.0527,-202.2188"/>
</g>
<!-- basic_rock&#45;&gt;advanced_snow -->
<g id="edge28" class="edge">
<title>basic_rock&#45;&gt;advanced_snow</title>
<path fill="none" stroke="#000000" d="M642.6623,-682.0285C606.2409,-660.414 549.3181,-626.6327 509.5406,-603.0264"/>
<polygon fill="#000000" stroke="#000000" points="511.2119,-599.9484 500.826,-597.8547 507.6394,-605.9681 511.2119,-599.9484"/>
</g>
<!-- intermediate_rock -->
<g id="node27" class="node">
<title>intermediate_rock</title>
<ellipse fill="none" stroke="#000000" cx="1081" cy="-576" rx="82.9636" ry="26.7407"/>
<text text-anchor="middle" x="1081" y="-579.8" font-family="San Francisco" font-size="14.00" fill="#000000">Intermediate</text>
<text text-anchor="middle" x="1081" y="-564.8" font-family="San Francisco" font-size="14.00" fill="#000000">Rock Climbing</text>
</g>
<!-- basic_rock&#45;&gt;intermediate_rock -->
<g id="edge12" class="edge">
<title>basic_rock&#45;&gt;intermediate_rock</title>
<path fill="none" stroke="#000000" d="M701.8272,-678.4313C713.3037,-668.0358 727.8504,-656.7837 743,-650 835.8291,-608.4327 870.266,-638.4269 969,-614 984.8461,-610.0797 1001.6515,-604.9295 1017.2922,-599.6915"/>
<polygon fill="#000000" stroke="#000000" points="1018.5257,-602.9688 1026.8612,-596.4289 1016.2667,-596.3433 1018.5257,-602.9688"/>
</g>
<!-- climbing_self_rescue_1 -->
<g id="node22" class="node">
<title>climbing_self_rescue_1</title>
<ellipse fill="none" stroke="#000000" cx="1431" cy="-449" rx="79.8063" ry="26.7407"/>
<text text-anchor="middle" x="1431" y="-452.8" font-family="San Francisco" font-size="14.00" fill="#000000">Climbing</text>
<text text-anchor="middle" x="1431" y="-437.8" font-family="San Francisco" font-size="14.00" fill="#000000">Self Rescue 1</text>
</g>
<!-- climbing_self_rescue_1&#45;&gt;hams -->
<g id="edge56" class="edge">
<title>climbing_self_rescue_1&#45;&gt;hams</title>
<path fill="none" stroke="#000000" stroke-dasharray="1,5" d="M1378.6227,-428.5991C1338.1224,-412.0555 1281.1889,-387.1024 1234,-360 1163.5262,-319.5243 1156.2051,-293.1749 1085,-254 1059.627,-240.0405 995.5656,-214.2719 943.4113,-194.0413"/>
<polygon fill="#000000" stroke="#000000" points="944.4128,-190.6761 933.8235,-190.3324 941.8872,-197.2046 944.4128,-190.6761"/>
</g>
<!-- climbing_self_rescue_1&#45;&gt;intermediate_acs -->
<g id="edge38" class="edge">
<title>climbing_self_rescue_1&#45;&gt;intermediate_acs</title>
<path fill="none" stroke="#000000" d="M1421.3479,-422.289C1407.5601,-384.5211 1381.1087,-313.4815 1356,-254 1351.145,-242.4988 1345.7045,-230.2782 1340.413,-218.6957"/>
<polygon fill="#000000" stroke="#000000" points="1343.5739,-217.1919 1336.2154,-209.5695 1337.2144,-220.1171 1343.5739,-217.1919"/>
</g>
<!-- climbing_self_rescue_2 -->
<g id="node23" class="node">
<title>climbing_self_rescue_2</title>
<ellipse fill="none" stroke="#000000" cx="1521" cy="-307" rx="79.8063" ry="26.7407"/>
<text text-anchor="middle" x="1521" y="-310.8" font-family="San Francisco" font-size="14.00" fill="#000000">Climbing</text>
<text text-anchor="middle" x="1521" y="-295.8" font-family="San Francisco" font-size="14.00" fill="#000000">Self Rescue 2</text>
</g>
<!-- climbing_self_rescue_1&#45;&gt;climbing_self_rescue_2 -->
<g id="edge19" class="edge">
<title>climbing_self_rescue_1&#45;&gt;climbing_self_rescue_2</title>
<path fill="none" stroke="#000000" d="M1447.7174,-422.6237C1462.0869,-399.9518 1482.9269,-367.071 1498.7127,-342.1643"/>
<polygon fill="#000000" stroke="#000000" points="1501.6696,-344.037 1504.0667,-333.7169 1495.7571,-340.2897 1501.6696,-344.037"/>
</g>
<!-- climbing_self_rescue_3 -->
<g id="node24" class="node">
<title>climbing_self_rescue_3</title>
<ellipse fill="none" stroke="#000000" cx="1541" cy="-165" rx="79.8063" ry="26.7407"/>
<text text-anchor="middle" x="1541" y="-168.8" font-family="San Francisco" font-size="14.00" fill="#000000">Climbing</text>
<text text-anchor="middle" x="1541" y="-153.8" font-family="San Francisco" font-size="14.00" fill="#000000">Self Rescue 3</text>
</g>
<!-- climbing_self_rescue_2&#45;&gt;climbing_self_rescue_3 -->
<g id="edge20" class="edge">
<title>climbing_self_rescue_2&#45;&gt;climbing_self_rescue_3</title>
<path fill="none" stroke="#000000" d="M1524.8089,-279.9566C1527.9228,-257.8479 1532.3572,-226.364 1535.7981,-201.9333"/>
<polygon fill="#000000" stroke="#000000" points="1539.2763,-202.3331 1537.2053,-191.9427 1532.3447,-201.3568 1539.2763,-202.3331"/>
</g>
<!-- intermediate_rock&#45;&gt;advanced_anchors -->
<g id="edge14" class="edge">
<title>intermediate_rock&#45;&gt;advanced_anchors</title>
<path fill="none" stroke="#000000" d="M1081,-549.0666C1081,-530.7134 1081,-506.1781 1081,-485.996"/>
<polygon fill="#000000" stroke="#000000" points="1084.5001,-485.8946 1081,-475.8946 1077.5001,-485.8946 1084.5001,-485.8946"/>
</g>
<!-- intermediate_rock&#45;&gt;basic_anchors -->
<g id="edge15" class="edge">
<title>intermediate_rock&#45;&gt;basic_anchors</title>
<path fill="none" stroke="#000000" d="M1130.1427,-554.1149C1143.5811,-548.5059 1158.2369,-542.7282 1172,-538 1229.5102,-518.2427 1267.0891,-550.3256 1304,-502 1338.8512,-456.371 1323.6324,-385.7325 1309.3516,-343.1703"/>
<polygon fill="#000000" stroke="#000000" points="1312.5734,-341.7809 1305.9614,-333.5025 1305.9678,-344.0974 1312.5734,-341.7809"/>
</g>
<!-- intermediate_rock&#45;&gt;basic_ice_climbing -->
<g id="edge40" class="edge">
<title>intermediate_rock&#45;&gt;basic_ice_climbing</title>
<path fill="none" stroke="#000000" d="M1047.8092,-551.3356C1033.2704,-538.4446 1017.7722,-521.3267 1010,-502 989.1204,-450.0795 998.9209,-384.0082 1008.5099,-343.643"/>
<polygon fill="#000000" stroke="#000000" points="1011.9626,-344.2624 1010.9888,-333.7124 1005.171,-342.567 1011.9626,-344.2624"/>
</g>
<!-- intermediate_rock&#45;&gt;climbing_self_rescue_1 -->
<g id="edge16" class="edge">
<title>intermediate_rock&#45;&gt;climbing_self_rescue_1</title>
<path fill="none" stroke="#000000" d="M1129.0395,-554.0348C1142.7328,-548.298 1157.7933,-542.4756 1172,-538 1243.59,-515.4466 1266.8622,-528.7295 1337,-502 1353.3823,-495.7567 1370.348,-486.996 1385.2817,-478.3924"/>
<polygon fill="#000000" stroke="#000000" points="1387.4568,-481.1731 1394.294,-473.0797 1383.902,-475.1429 1387.4568,-481.1731"/>
</g>
<!-- rock_seconding -->
<g id="node32" class="node">
<title>rock_seconding</title>
<ellipse fill="none" stroke="#000000" cx="1593" cy="-449" rx="64.1938" ry="26.7407"/>
<text text-anchor="middle" x="1593" y="-452.8" font-family="San Francisco" font-size="14.00" fill="#000000">Rock</text>
<text text-anchor="middle" x="1593" y="-437.8" font-family="San Francisco" font-size="14.00" fill="#000000">Seconding</text>
</g>
<!-- intermediate_rock&#45;&gt;rock_seconding -->
<g id="edge17" class="edge">
<title>intermediate_rock&#45;&gt;rock_seconding</title>
<path fill="none" stroke="#000000" d="M1127.3308,-553.5837C1141.3875,-547.6275 1157.0678,-541.8021 1172,-538 1322.6841,-499.6321 1374.7807,-557.58 1520,-502 1533.5356,-496.8195 1546.8243,-488.4589 1558.2759,-479.8942"/>
<polygon fill="#000000" stroke="#000000" points="1560.5324,-482.573 1566.267,-473.6642 1556.2285,-477.0524 1560.5324,-482.573"/>
</g>
<!-- sport_lead_climbing -->
<g id="node33" class="node">
<title>sport_lead_climbing</title>
<ellipse fill="none" stroke="#000000" cx="1228" cy="-449" rx="67.3507" ry="26.7407"/>
<text text-anchor="middle" x="1228" y="-452.8" font-family="San Francisco" font-size="14.00" fill="#000000">Sport Lead</text>
<text text-anchor="middle" x="1228" y="-437.8" font-family="San Francisco" font-size="14.00" fill="#000000">Climbing</text>
</g>
<!-- intermediate_rock&#45;&gt;sport_lead_climbing -->
<g id="edge18" class="edge">
<title>intermediate_rock&#45;&gt;sport_lead_climbing</title>
<path fill="none" stroke="#000000" d="M1110.3943,-550.6049C1133.8315,-530.3565 1166.7632,-501.9053 1191.8192,-480.2582"/>
<polygon fill="#000000" stroke="#000000" points="1194.3766,-482.6741 1199.6556,-473.4881 1189.8003,-477.3771 1194.3766,-482.6741"/>
</g>
<!-- intermediate_rock&#45;&gt;acs_grad_climb -->
<g id="edge13" class="edge">
<title>intermediate_rock&#45;&gt;acs_grad_climb</title>
<path fill="none" stroke="#000000" d="M1023.3426,-556.5823C967.6049,-537.5704 889.7543,-510.289 877,-502 866.042,-494.8784 855.6946,-484.9803 847.2208,-475.6638"/>
<polygon fill="#000000" stroke="#000000" points="849.785,-473.279 840.5713,-468.0485 844.5122,-477.8832 849.785,-473.279"/>
</g>
<!-- intermediate_snow&#45;&gt;advanced_snow -->
<g id="edge29" class="edge">
<title>intermediate_snow&#45;&gt;advanced_snow</title>
<path fill="none" stroke="#000000" d="M340.0583,-678.2116C364.9669,-657.6702 400.4732,-628.389 427.1028,-606.4282"/>
<polygon fill="#000000" stroke="#000000" points="429.5725,-608.9282 435.0606,-599.8656 425.1188,-603.5277 429.5725,-608.9282"/>
</g>
<!-- navigation_2 -->
<g id="node30" class="node">
<title>navigation_2</title>
<ellipse fill="none" stroke="#000000" cx="890" cy="-576" rx="69.5877" ry="18"/>
<text text-anchor="middle" x="890" y="-572.3" font-family="San Francisco" font-size="14.00" fill="#000000">Navigation 2</text>
</g>
<!-- navigation_1&#45;&gt;navigation_2 -->
<g id="edge25" class="edge">
<title>navigation_1&#45;&gt;navigation_2</title>
<path fill="none" stroke="#000000" d="M987.2878,-685.3412C967.9166,-663.57 934.8485,-626.405 912.7141,-601.5282"/>
<polygon fill="#000000" stroke="#000000" points="915.2051,-599.0626 905.943,-593.9182 909.9755,-603.7157 915.2051,-599.0626"/>
</g>
<!-- navigation_3 -->
<g id="node31" class="node">
<title>navigation_3</title>
<ellipse fill="none" stroke="#000000" cx="1251" cy="-576" rx="69.5877" ry="18"/>
<text text-anchor="middle" x="1251" y="-572.3" font-family="San Francisco" font-size="14.00" fill="#000000">Navigation 3</text>
</g>
<!-- navigation_1&#45;&gt;navigation_3 -->
<g id="edge26" class="edge">
<title>navigation_1&#45;&gt;navigation_3</title>
<path fill="none" stroke="#000000" d="M1034.4094,-686.9154C1079.1025,-664.0282 1161.0796,-622.0479 1210.3541,-596.8146"/>
<polygon fill="#000000" stroke="#000000" points="1212.1495,-599.8275 1219.4549,-592.1541 1208.9588,-593.597 1212.1495,-599.8275"/>
</g>
<!-- navigation_2&#45;&gt;acs_grad_climb -->
<g id="edge32" class="edge">
<title>navigation_2&#45;&gt;acs_grad_climb</title>
<path fill="none" stroke="#000000" d="M880.9661,-558.0734C870.3805,-537.0675 852.7082,-501.999 840.265,-477.3071"/>
<polygon fill="#000000" stroke="#000000" points="843.2408,-475.4348 835.615,-468.0797 836.9897,-478.585 843.2408,-475.4348"/>
</g>
<!-- rock_seconding&#45;&gt;intermediate_acs -->
<g id="edge39" class="edge">
<title>rock_seconding&#45;&gt;intermediate_acs</title>
<path fill="none" stroke="#000000" d="M1563.1855,-424.8593C1550.3621,-415.1475 1534.9141,-404.3062 1520,-396 1483.0821,-375.4392 1461.5914,-390.1666 1432,-360 1396.6277,-323.9402 1416.8801,-297.3789 1391,-254 1381.9496,-238.8303 1370.2814,-223.6997 1358.817,-210.331"/>
<polygon fill="#000000" stroke="#000000" points="1361.3338,-207.8924 1352.1119,-202.6764 1356.0683,-212.5049 1361.3338,-207.8924"/>
</g>
<!-- rock_seconding&#45;&gt;climbing_self_rescue_2 -->
<g id="edge23" class="edge">
<title>rock_seconding&#45;&gt;climbing_self_rescue_2</title>
<path fill="none" stroke="#000000" d="M1579.6261,-422.6237C1568.2309,-400.1498 1551.7493,-367.6445 1539.1616,-342.8187"/>
<polygon fill="#000000" stroke="#000000" points="1542.1906,-341.0531 1534.5466,-333.7169 1535.9473,-344.2188 1542.1906,-341.0531"/>
</g>
<!-- traditional_lead_climbing -->
<g id="node34" class="node">
<title>traditional_lead_climbing</title>
<ellipse fill="none" stroke="#000000" cx="1891" cy="-307" rx="64.1938" ry="37.4533"/>
<text text-anchor="middle" x="1891" y="-318.3" font-family="San Francisco" font-size="14.00" fill="#000000">Traditional</text>
<text text-anchor="middle" x="1891" y="-303.3" font-family="San Francisco" font-size="14.00" fill="#000000">Lead</text>
<text text-anchor="middle" x="1891" y="-288.3" font-family="San Francisco" font-size="14.00" fill="#000000">Climbing</text>
</g>
<!-- rock_seconding&#45;&gt;traditional_lead_climbing -->
<g id="edge22" class="edge">
<title>rock_seconding&#45;&gt;traditional_lead_climbing</title>
<path fill="none" stroke="#000000" d="M1644.6904,-432.7059C1691.3949,-417.0271 1761.3002,-391.1467 1818,-360 1826.8538,-355.1364 1835.8802,-349.3591 1844.4302,-343.4373"/>
<polygon fill="#000000" stroke="#000000" points="1846.6702,-346.1393 1852.7973,-337.4958 1842.6174,-340.4319 1846.6702,-346.1393"/>
</g>
<!-- traditional_lead_climbing&#45;&gt;ice_lead_climbing -->
<g id="edge44" class="edge">
<title>traditional_lead_climbing&#45;&gt;ice_lead_climbing</title>
<path fill="none" stroke="#000000" d="M1853.0291,-276.5374C1822.853,-252.3284 1780.89,-218.6632 1750.9768,-194.665"/>
<polygon fill="#000000" stroke="#000000" points="1752.8694,-191.6962 1742.8791,-188.1685 1748.489,-197.1563 1752.8694,-191.6962"/>
</g>
<!-- difficult_class_c_hike -->
<g id="node35" class="node">
<title>difficult_class_c_hike</title>
<polygon fill="none" stroke="#000000" points="915.5,-729.5 842.5,-729.5 842.5,-676.5 915.5,-676.5 915.5,-729.5"/>
<text text-anchor="middle" x="879" y="-714.3" font-family="San Francisco" font-size="14.00" fill="#000000">Go on a</text>
<text text-anchor="middle" x="879" y="-699.3" font-family="San Francisco" font-size="14.00" fill="#000000">difficult</text>
<text text-anchor="middle" x="879" y="-684.3" font-family="San Francisco" font-size="14.00" fill="#000000">C hike</text>
</g>
<!-- difficult_class_c_hike&#45;&gt;class_c -->
<g id="edge4" class="edge">
<title>difficult_class_c_hike&#45;&gt;class_c</title>
<path fill="none" stroke="#000000" d="M859.7566,-676.3168C852.3773,-667.2478 843.4448,-657.5164 834,-650 805.7025,-627.48 769.4843,-608.8223 740.5783,-595.8748"/>
<polygon fill="#000000" stroke="#000000" points="741.6413,-592.5191 731.0778,-591.7054 738.8283,-598.929 741.6413,-592.5191"/>
</g>
<!-- acs_couloir_climb&#45;&gt;acs -->
<g id="edge34" class="edge">
<title>acs_couloir_climb&#45;&gt;acs</title>
<path fill="none" stroke="#000000" d="M530.6443,-429.8114C538.1457,-418.1446 549.2842,-403.9982 563,-396 646.3165,-347.4152 686.5454,-393.4678 777,-360 790.998,-354.8208 805.2482,-347.3639 818.0898,-339.6719"/>
<polygon fill="#000000" stroke="#000000" points="820.0647,-342.566 826.7348,-334.3343 816.3872,-336.6099 820.0647,-342.566"/>
</g>
<!-- acs_grad_climb&#45;&gt;acs -->
<g id="edge35" class="edge">
<title>acs_grad_climb&#45;&gt;acs</title>
<path fill="none" stroke="#000000" d="M831.2597,-429.8492C836.0658,-412.3503 843.4093,-385.6122 850.0196,-361.5439"/>
<polygon fill="#000000" stroke="#000000" points="853.4281,-362.3488 852.7016,-351.7789 846.6781,-360.4949 853.4281,-362.3488"/>
</g>
<!-- class_c_hike -->
<g id="node38" class="node">
<title>class_c_hike</title>
<polygon fill="none" stroke="#000000" points="824.5,-722 751.5,-722 751.5,-684 824.5,-684 824.5,-722"/>
<text text-anchor="middle" x="788" y="-706.8" font-family="San Francisco" font-size="14.00" fill="#000000">Go on a</text>
<text text-anchor="middle" x="788" y="-691.8" font-family="San Francisco" font-size="14.00" fill="#000000">C hike</text>
</g>
<!-- class_c_hike&#45;&gt;class_c -->
<g id="edge3" class="edge">
<title>class_c_hike&#45;&gt;class_c</title>
<path fill="none" stroke="#000000" d="M773.4781,-683.9868C758.7277,-664.6744 735.5508,-634.3295 717.5171,-610.7182"/>
<polygon fill="#000000" stroke="#000000" points="720.2264,-608.4993 711.375,-602.6766 714.6634,-612.7482 720.2264,-608.4993"/>
</g>
<!-- class_d_hike -->
<g id="node39" class="node">
<title>class_d_hike</title>
<polygon fill="none" stroke="#000000" points="540.5,-326 467.5,-326 467.5,-288 540.5,-288 540.5,-326"/>
<text text-anchor="middle" x="504" y="-310.8" font-family="San Francisco" font-size="14.00" fill="#000000">Go on a</text>
<text text-anchor="middle" x="504" y="-295.8" font-family="San Francisco" font-size="14.00" fill="#000000">D hike</text>
</g>
<!-- class_d_hike&#45;&gt;class_d -->
<g id="edge6" class="edge">
<title>class_d_hike&#45;&gt;class_d</title>
<path fill="none" stroke="#000000" d="M503.5954,-287.8492C503.192,-268.7535 502.5561,-238.6552 502.0147,-213.0307"/>
<polygon fill="#000000" stroke="#000000" points="505.5077,-212.6582 501.7972,-202.7344 498.5093,-212.8061 505.5077,-212.6582"/>
</g>
<!-- difficult_class_d_hike -->
<g id="node40" class="node">
<title>difficult_class_d_hike</title>
<polygon fill="none" stroke="#000000" points="449.5,-333.5 376.5,-333.5 376.5,-280.5 449.5,-280.5 449.5,-333.5"/>
<text text-anchor="middle" x="413" y="-318.3" font-family="San Francisco" font-size="14.00" fill="#000000">Go on a</text>
<text text-anchor="middle" x="413" y="-303.3" font-family="San Francisco" font-size="14.00" fill="#000000">difficult</text>
<text text-anchor="middle" x="413" y="-288.3" font-family="San Francisco" font-size="14.00" fill="#000000">D hike</text>
</g>
<!-- difficult_class_d_hike&#45;&gt;class_d -->
<g id="edge7" class="edge">
<title>difficult_class_d_hike&#45;&gt;class_d</title>
<path fill="none" stroke="#000000" d="M429.5521,-280.2909C443.2096,-258.2527 462.7414,-226.7354 477.9328,-202.2221"/>
<polygon fill="#000000" stroke="#000000" points="481.0216,-203.8822 483.3143,-193.5383 475.0715,-200.1948 481.0216,-203.8822"/>
</g>
<!-- ten_days_on_rock -->
<g id="node41" class="node">
<title>ten_days_on_rock</title>
<polygon fill="none" stroke="#000000" points="962.5,-475.5 885.5,-475.5 885.5,-422.5 962.5,-422.5 962.5,-475.5"/>
<text text-anchor="middle" x="924" y="-460.3" font-family="San Francisco" font-size="14.00" fill="#000000">10 days</text>
<text text-anchor="middle" x="924" y="-445.3" font-family="San Francisco" font-size="14.00" fill="#000000">climbing</text>
<text text-anchor="middle" x="924" y="-430.3" font-family="San Francisco" font-size="14.00" fill="#000000">on rock</text>
</g>
<!-- ten_days_on_rock&#45;&gt;basic_ice_climbing -->
<g id="edge41" class="edge">
<title>ten_days_on_rock&#45;&gt;basic_ice_climbing</title>
<path fill="none" stroke="#000000" d="M941.8688,-422.2909C957.2543,-399.2936 979.5454,-365.9743 996.2114,-341.063"/>
<polygon fill="#000000" stroke="#000000" points="999.1997,-342.8906 1001.8512,-332.6329 993.3817,-338.9982 999.1997,-342.8906"/>
</g>
<!-- climb_5_9 -->
<g id="node42" class="node">
<title>climb_5_9</title>
<polygon fill="none" stroke="#000000" points="1955.0823,-436.9182 1955.0823,-461.0818 1917.5438,-478.1681 1864.4562,-478.1681 1826.9177,-461.0818 1826.9177,-436.9182 1864.4562,-419.8319 1917.5438,-419.8319 1955.0823,-436.9182"/>
<text text-anchor="middle" x="1891" y="-452.8" font-family="San Francisco" font-size="14.00" fill="#000000">Climb 5.9</text>
<text text-anchor="middle" x="1891" y="-437.8" font-family="San Francisco" font-size="14.00" fill="#000000">in gym</text>
</g>
<!-- climb_5_9&#45;&gt;traditional_lead_climbing -->
<g id="edge21" class="edge">
<title>climb_5_9&#45;&gt;traditional_lead_climbing</title>
<path fill="none" stroke="#000000" d="M1891,-419.5775C1891,-400.8679 1891,-376.2109 1891,-354.743"/>
<polygon fill="#000000" stroke="#000000" points="1894.5001,-354.5003 1891,-344.5004 1887.5001,-354.5004 1894.5001,-354.5003"/>
</g>
<!-- ski_black_diamond -->
<g id="node43" class="node">
<title>ski_black_diamond</title>
<polygon fill="none" stroke="#000000" points="150.4596,-294.9182 150.4596,-319.0818 114.4574,-336.1681 63.5426,-336.1681 27.5404,-319.0818 27.5404,-294.9182 63.5426,-277.8319 114.4574,-277.8319 150.4596,-294.9182"/>
<text text-anchor="middle" x="89" y="-310.8" font-family="San Francisco" font-size="14.00" fill="#000000">Ski black</text>
<text text-anchor="middle" x="89" y="-295.8" font-family="San Francisco" font-size="14.00" fill="#000000">diamond</text>
</g>
<!-- ski_black_diamond&#45;&gt;ski_mountaineering -->
<g id="edge48" class="edge">
<title>ski_black_diamond&#45;&gt;ski_mountaineering</title>
<path fill="none" stroke="#000000" d="M107.0265,-277.5775C117.9139,-259.8072 132.0885,-236.6717 144.754,-215.9992"/>
<polygon fill="#000000" stroke="#000000" points="147.8358,-217.6686 150.0757,-207.3132 141.867,-214.0116 147.8358,-217.6686"/>
</g>
<!-- toprope_ice -->
<g id="node44" class="node">
<title>toprope_ice</title>
<polygon fill="none" stroke="#000000" points="1808.8111,-294.9182 1808.8111,-319.0818 1753.272,-336.1681 1674.728,-336.1681 1619.1889,-319.0818 1619.1889,-294.9182 1674.728,-277.8319 1753.272,-277.8319 1808.8111,-294.9182"/>
<text text-anchor="middle" x="1714" y="-310.8" font-family="San Francisco" font-size="14.00" fill="#000000">Top&#45;rope steep</text>
<text text-anchor="middle" x="1714" y="-295.8" font-family="San Francisco" font-size="14.00" fill="#000000">ice: WI4&#45;WI5</text>
</g>
<!-- toprope_ice&#45;&gt;ice_lead_climbing -->
<g id="edge45" class="edge">
<title>toprope_ice&#45;&gt;ice_lead_climbing</title>
<path fill="none" stroke="#000000" d="M1714,-277.5775C1714,-255.7391 1714,-225.7977 1714,-202.2829"/>
<polygon fill="#000000" stroke="#000000" points="1717.5001,-201.9832 1714,-191.9832 1710.5001,-201.9832 1717.5001,-201.9832"/>
</g>
</g>
</svg>
